<?xml version="1.0" standalone="no"?>
<!DOCTYPE svg PUBLIC "-//W3C//DTD SVG 20010904//EN"
 "http://www.w3.org/TR/2001/REC-SVG-20010904/DTD/svg10.dtd">
<svg version="1.0" xmlns="http://www.w3.org/2000/svg"
 width="1024.000000pt" height="1024.000000pt" viewBox="0 0 1024.000000 1024.000000"
 preserveAspectRatio="xMidYMid meet">
<metadata>
Created by potrace 1.16, written by Peter Selinger 2001-2019
</metadata>
<g transform="translate(0.000000,1024.000000) scale(0.100000,-0.100000)"
fill="#000000" stroke="none">
<path d="M2173 8479 c-29 -5 -141 -32 -250 -60 -109 -28 -249 -64 -312 -80
-126 -32 -162 -50 -215 -110 -43 -47 -53 -70 -72 -167 -28 -145 -10 -222 71
-311 l52 -56 -28 -215 c-15 -118 -28 -236 -28 -261 l-1 -46 -91 -27 c-287 -86
-529 -294 -633 -544 -100 -239 -83 -518 45 -737 25 -43 36 -71 29 -73 -22 -8
-126 -100 -203 -181 -145 -152 -235 -319 -279 -515 -25 -115 -21 -299 11 -421
25 -93 81 -215 140 -300 88 -129 257 -274 406 -348 67 -33 223 -82 315 -98 96
-17 339 -17 455 0 100 14 289 60 377 90 76 26 78 15 23 -96 -79 -159 -93 -272
-46 -379 36 -79 89 -125 185 -157 42 -15 98 -17 376 -17 179 0 364 5 410 10
121 15 274 54 375 94 l86 35 30 -33 c24 -27 56 -48 147 -93 2 0 -13 -39 -34
-85 -174 -389 -177 -398 -177 -488 0 -107 39 -175 128 -223 l40 -22 2905 -3
c1981 -2 2916 0 2941 7 88 26 162 116 175 214 4 28 -11 126 -45 305 -28 144
-51 270 -51 280 0 11 19 25 55 41 73 31 138 101 161 175 16 50 16 67 6 155 -7
60 -24 132 -42 183 -35 95 -51 191 -120 723 -76 595 -74 566 -61 638 13 77 14
197 1 253 -8 35 -5 53 15 113 29 83 33 182 10 239 -30 71 -104 128 -188 147
l-29 6 35 42 c109 133 241 375 296 542 81 249 111 560 76 794 -62 417 -315
708 -700 807 -250 65 -612 33 -850 -75 -143 -65 -328 -207 -420 -321 -27 -33
-51 -60 -54 -60 -3 0 -22 28 -41 62 -42 74 -143 179 -225 233 -80 52 -228 109
-350 134 -159 32 -328 41 -779 41 -449 0 -492 -4 -576 -51 l-36 -21 -125 26
c-171 35 -290 46 -483 46 -265 0 -450 -26 -649 -91 -101 -33 -264 -112 -349
-170 -157 -107 -332 -299 -418 -460 l-45 -84 -7 65 c-37 313 -61 493 -73 536
-20 71 -65 129 -127 161 l-53 28 -285 3 -285 4 -28 58 c-47 99 -129 164 -239
190 -51 11 -202 11 -275 -1z m258 -308 c33 -36 43 -88 29 -156 -20 -98 -76
-155 -159 -163 -65 -6 -112 21 -135 78 -43 108 17 255 112 276 15 3 32 7 37 8
27 7 93 -17 116 -43z m-355 -28 c-6 -23 -25 -159 -77 -548 -41 -315 -50 -438
-36 -487 l7 -28 -170 0 c-93 0 -170 2 -170 4 0 2 7 23 15 47 9 24 24 93 35
154 18 104 100 655 100 676 0 5 -34 9 -75 9 l-76 0 7 38 c12 67 21 82 51 83
16 0 98 15 183 33 188 40 213 43 206 19z m6829 -197 c227 -68 371 -201 440
-404 37 -111 48 -186 47 -337 -2 -293 -79 -569 -216 -780 -148 -226 -359 -372
-621 -426 -117 -24 -352 -26 -463 -3 -394 81 -584 375 -543 840 33 373 183
711 402 908 75 67 198 140 297 176 135 49 215 60 402 56 144 -3 177 -7 255
-30z m-3678 8 c93 -13 270 -57 282 -70 3 -3 -5 -71 -18 -152 -13 -81 -28 -182
-34 -224 -6 -43 -14 -78 -18 -78 -4 0 -17 15 -29 34 -33 55 -129 137 -196 168
-80 37 -179 58 -284 58 -179 0 -302 -52 -431 -180 -71 -71 -93 -101 -131 -180
-71 -145 -104 -261 -127 -450 -36 -290 23 -479 183 -586 74 -48 193 -77 306
-72 49 1 91 6 94 9 4 3 20 100 37 215 34 239 39 361 15 418 -9 21 -16 40 -16
42 0 2 135 4 300 4 165 0 300 -1 300 -3 0 -2 -11 -31 -25 -65 -30 -74 -50
-161 -110 -485 -25 -136 -48 -253 -51 -261 -6 -16 -174 -65 -324 -95 -476 -96
-860 -18 -1070 216 -56 63 -119 184 -145 278 -25 90 -31 336 -11 455 63 386
244 663 558 851 122 73 301 137 444 158 102 15 388 12 501 -5z m1488 6 c365
-25 546 -104 630 -274 63 -126 57 -280 -16 -433 -45 -95 -167 -215 -269 -264
-96 -47 -154 -67 -260 -89 -73 -15 -81 -19 -55 -25 105 -23 184 -75 233 -152
17 -26 59 -111 95 -188 179 -389 209 -440 285 -487 l37 -23 -60 -6 c-33 -4
-141 -7 -240 -8 -170 -1 -183 1 -230 23 -57 27 -111 80 -148 146 -14 25 -55
122 -92 215 -37 94 -89 225 -117 293 l-50 123 -101 -3 -102 -3 -33 -255 c-39
-301 -40 -420 -4 -488 l22 -42 -331 0 c-350 0 -340 -2 -298 45 27 31 57 104
74 184 70 332 178 1153 192 1451 6 131 -1 179 -33 258 -7 15 654 17 871 2z
m-3491 -32 c5 -32 82 -598 146 -1073 88 -659 102 -734 146 -792 13 -17 24 -34
24 -37 0 -3 -146 -6 -325 -6 l-325 0 21 42 c33 65 45 219 31 407 -7 86 -15
173 -18 194 l-7 37 -252 0 -252 0 -37 47 c-37 48 -108 106 -176 144 l-39 22
34 67 c18 36 107 239 196 451 134 317 163 393 163 434 1 28 -3 60 -7 73 l-8
22 339 0 340 0 6 -32z m-1402 -1013 c292 -44 476 -186 543 -419 24 -81 16
-245 -15 -334 -63 -178 -239 -352 -480 -472 -36 -18 -67 -34 -69 -36 -2 -2 21
-31 51 -66 65 -74 336 -416 427 -538 35 -47 67 -89 71 -93 11 -12 95 109 129
185 48 106 66 191 66 316 l0 112 232 0 233 0 -6 -47 c-40 -339 -121 -534 -291
-694 -65 -62 -128 -99 -168 -99 -24 0 -19 -8 57 -91 100 -108 287 -280 345
-317 23 -15 42 -29 43 -32 0 -3 -167 -5 -371 -5 l-371 0 -21 26 c-12 14 -33
40 -47 58 l-26 33 -59 -29 c-208 -104 -500 -173 -735 -173 -261 0 -478 69
-642 204 -151 125 -221 281 -220 491 1 313 189 569 534 730 l105 49 -67 85
c-199 254 -258 456 -194 673 40 136 149 278 276 361 173 113 426 159 670 122z
m2067 -1089 c112 -68 245 -112 421 -141 108 -17 416 -21 520 -5 109 16 105 21
55 -79 -24 -49 -54 -121 -67 -160 l-22 -71 -575 0 -576 0 -50 -24 c-27 -12
-56 -30 -63 -39 -13 -15 -18 -14 -62 8 -26 13 -69 29 -95 36 l-47 12 9 61 c10
76 11 232 1 267 l-8 27 163 4 c153 4 165 5 220 32 39 19 68 42 85 67 15 21 29
38 31 39 2 0 29 -15 60 -34z m3756 -65 c80 -36 121 -113 112 -211 -14 -154
-129 -271 -281 -287 -69 -7 -129 11 -177 54 -138 124 -43 391 161 454 47 14
143 9 185 -10z m1504 3 c40 -12 51 -19 47 -32 -2 -9 -7 -32 -11 -49 -6 -32 -7
-32 -33 -19 -69 35 -174 27 -187 -15 -9 -28 10 -46 81 -80 82 -39 124 -86 124
-140 0 -134 -148 -200 -332 -149 -40 12 -45 24 -32 87 l6 30 40 -19 c57 -28
149 -29 177 -4 14 13 21 29 19 45 -2 21 -18 34 -83 68 -99 51 -125 80 -125
136 0 120 150 189 309 141z m-3585 -86 c9 -51 29 -164 45 -250 l28 -158 -63 0
c-69 0 -62 -8 -79 93 l-6 37 -88 0 -89 0 -28 -65 -28 -65 -59 0 c-32 0 -57 4
-55 9 2 5 57 118 123 250 l119 241 82 0 82 0 16 -92z m359 -25 c29 -62 55
-113 58 -113 4 0 46 52 95 115 l89 114 59 1 59 0 -6 -27 c-3 -16 -17 -118 -32
-228 -36 -273 -25 -245 -91 -245 l-55 0 7 53 c4 28 14 103 24 166 l17 113 -21
-27 c-59 -81 -162 -209 -172 -212 -6 -2 -37 52 -70 120 l-59 124 -20 -166 -21
-166 -52 -3 c-28 -2 -52 1 -52 5 -1 12 62 466 66 481 3 9 21 12 64 10 l61 -3
52 -112z m776 5 c30 -164 61 -350 61 -370 0 -15 -9 -18 -59 -18 l-58 0 -9 63
-9 62 -88 3 -87 3 -31 -66 -32 -65 -59 0 -59 0 127 250 127 250 78 0 77 0 21
-112z m541 66 c-5 -32 -17 -56 -41 -82 -19 -20 -85 -91 -146 -157 l-110 -120
118 4 c130 3 124 7 113 -61 l-7 -38 -189 0 -190 0 7 43 c9 56 12 60 163 222
l131 140 -116 3 c-113 3 -115 3 -109 25 3 12 6 32 6 45 l0 22 188 0 189 0 -7
-46z m761 -52 c31 -53 69 -121 85 -149 32 -59 44 -66 44 -25 0 15 7 82 17 150
l17 122 51 0 c50 0 51 -1 48 -27 -9 -79 -55 -412 -60 -440 -5 -32 -7 -33 -52
-33 l-46 0 -90 160 c-50 88 -92 160 -95 160 -3 0 -7 -15 -8 -32 -1 -18 -9 -85
-17 -148 -8 -63 -15 -120 -15 -127 0 -9 -17 -13 -55 -13 -52 0 -55 1 -50 23 4
18 65 461 65 473 0 2 24 4 53 4 l52 0 56 -98z m707 -129 c23 -126 44 -238 48
-250 6 -22 4 -23 -59 -23 l-65 0 -9 61 -8 61 -92 2 -93 1 -26 -62 -27 -63 -59
0 c-33 0 -58 3 -56 8 2 4 17 34 34 67 17 33 72 142 122 243 l92 182 78 0 78 0
42 -227z m-798 -477 c63 -16 118 -31 122 -35 8 -7 -23 -301 -32 -301 -3 0 -24
19 -45 42 -23 24 -71 56 -115 77 -71 34 -81 36 -175 36 -82 0 -107 -4 -140
-21 -77 -39 -95 -126 -38 -187 15 -16 98 -75 183 -132 174 -114 255 -192 298
-282 24 -52 27 -70 27 -163 0 -97 -2 -110 -31 -170 -35 -74 -113 -164 -181
-210 -146 -96 -444 -113 -671 -38 l-94 31 6 41 c3 23 9 91 12 153 l7 112 56
-46 c69 -57 140 -88 244 -109 133 -27 255 2 297 71 65 108 28 161 -225 320
-180 113 -253 202 -277 335 -38 216 111 431 342 495 88 24 287 15 430 -19z
m-4688 -1 c105 -27 187 -72 254 -139 105 -106 148 -228 147 -416 -3 -342 -153
-632 -385 -744 -166 -79 -288 -96 -712 -96 -290 0 -308 1 -301 18 37 84 78
229 97 335 l22 127 174 0 175 0 -8 -47 c-17 -114 -33 -238 -30 -241 9 -10 240
20 288 38 109 41 192 128 238 249 59 158 79 378 45 493 -21 69 -83 166 -130
201 -18 14 -54 36 -80 49 -25 12 -45 25 -44 28 2 3 17 43 33 89 l30 83 62 -6
c34 -3 90 -12 125 -21z m1584 -2 c-3 -16 -13 -79 -22 -140 -9 -62 -18 -113
-19 -113 -1 0 -22 11 -46 24 -59 33 -131 44 -336 52 l-172 7 -5 -34 c-6 -40
-46 -375 -46 -389 0 -24 340 -4 436 25 27 8 49 13 50 12 3 -3 -48 -281 -52
-286 -2 -3 -25 6 -52 20 -44 22 -60 24 -227 27 l-180 4 -24 -194 c-13 -106
-24 -197 -25 -201 0 -5 60 -8 135 -7 155 1 287 24 375 64 32 15 58 25 60 23 2
-1 -10 -54 -25 -117 -16 -63 -31 -126 -34 -140 l-6 -25 -477 3 c-451 2 -476 3
-461 20 59 65 110 293 156 707 47 415 49 576 6 658 l-14 27 505 0 506 0 -6
-27z m1154 15 c0 -18 -42 -282 -46 -287 -2 -2 -17 8 -34 22 -48 41 -90 48
-300 54 l-195 6 -23 -189 c-13 -104 -26 -202 -29 -218 l-6 -29 204 6 c174 5
266 15 314 37 2 1 -58 -296 -60 -298 -1 -2 -20 6 -42 17 -54 29 -121 40 -292
47 l-148 7 -6 -64 c-3 -35 -13 -125 -22 -199 -19 -151 -15 -214 15 -271 l20
-39 -250 0 c-138 0 -250 4 -250 9 0 5 7 14 15 21 46 38 98 277 144 665 46 386
54 586 27 664 -9 24 -16 45 -16 47 0 2 221 4 490 4 385 0 490 -3 490 -12z
m1096 -5 c-2 -10 -12 -72 -22 -138 -9 -66 -18 -122 -20 -123 -1 -2 -22 8 -46
22 -52 31 -126 42 -335 52 l-152 6 -5 -33 c-9 -56 -46 -364 -46 -384 0 -17 10
-18 178 -11 97 3 200 12 227 20 28 7 57 15 65 17 9 3 14 -2 12 -11 -2 -8 -13
-62 -23 -120 -30 -164 -26 -152 -52 -136 -12 8 -46 19 -75 25 -62 13 -362 15
-362 3 0 -5 -11 -94 -25 -198 -14 -104 -25 -191 -25 -193 0 -2 75 -1 168 2
176 5 277 24 361 67 23 11 41 17 41 13 -2 -29 -66 -274 -72 -274 -5 1 -220 1
-479 1 l-470 0 24 33 c59 78 88 216 147 684 53 429 59 568 24 652 -8 18 -14
35 -14 37 0 2 221 4 491 4 462 0 490 -1 485 -17z m2074 5 c0 -16 48 -423 114
-983 25 -202 51 -326 81 -386 8 -15 15 -30 15 -34 0 -3 -115 -5 -255 -5 -140
0 -255 4 -255 9 0 5 7 15 17 22 43 36 63 185 48 362 l-7 87 -217 0 -217 0 -55
-167 c-45 -140 -54 -180 -54 -240 l0 -72 -192 0 c-106 0 -193 2 -193 4 0 1 16
27 36 56 45 67 81 141 234 492 66 153 171 388 231 524 112 248 118 270 94 326
-7 16 10 17 284 17 226 0 291 -3 291 -12z m-1132 -1660 c2 -12 -8 -20 -35 -27
-59 -17 -173 -26 -173 -14 0 19 27 33 91 47 80 18 113 16 117 -6z m-3365 -81
c27 -7 49 -15 49 -20 0 -4 -2 -29 -6 -57 l-7 -49 -42 19 c-148 68 -297 -37
-285 -201 4 -51 9 -65 36 -92 29 -29 38 -32 92 -32 32 0 63 5 69 10 5 6 13 29
17 53 l7 42 -56 0 -56 0 5 33 c3 17 7 38 10 45 2 9 34 12 112 12 l109 0 -17
-115 c-10 -64 -23 -122 -29 -129 -22 -26 -134 -49 -218 -44 -105 6 -154 36
-190 115 -22 48 -25 65 -20 124 9 106 57 192 140 251 62 44 180 59 280 35z
m1012 -13 c22 -11 54 -40 70 -63 28 -40 30 -49 30 -129 -1 -72 -5 -97 -26
-143 -53 -112 -137 -170 -262 -177 -171 -10 -259 79 -243 248 11 122 87 225
200 270 67 26 174 24 231 -6z m1435 12 c38 -14 41 -29 25 -114 -6 -31 -8 -34
-17 -18 -26 47 -128 59 -198 24 -101 -52 -134 -234 -53 -298 34 -26 124 -27
191 -1 l49 18 -11 -51 c-11 -49 -13 -52 -61 -68 -28 -9 -81 -17 -118 -18 -167
-1 -248 100 -216 273 23 130 101 222 219 258 39 12 152 9 190 -5z m215 -24
c-25 -144 -44 -324 -36 -345 13 -34 49 -57 89 -57 80 0 96 31 123 247 12 92
22 173 24 178 1 6 28 9 62 7 l59 -4 -23 -176 c-27 -206 -40 -248 -93 -296 -45
-41 -92 -56 -175 -56 -108 0 -182 55 -192 142 -4 36 29 344 41 383 2 6 29 9
64 7 60 -4 61 -4 57 -30z m701 -152 c17 -102 38 -220 46 -262 l15 -78 -68 0
-67 0 -7 60 -7 60 -92 0 -92 0 -21 -57 -20 -58 -61 -3 -61 -3 11 32 c14 40
226 469 240 487 8 9 33 12 82 10 l70 -3 32 -185z m-3898 118 c24 -140 73 -414
79 -435 5 -22 3 -23 -60 -23 -70 0 -77 5 -77 60 0 57 -4 60 -104 60 l-91 0
-23 -60 -24 -60 -59 0 c-32 0 -59 3 -59 6 0 6 148 313 208 432 l42 82 79 0 78
0 11 -62z m1006 48 c18 -7 43 -26 55 -42 20 -25 22 -38 19 -96 -5 -91 -25
-117 -126 -164 -5 -3 56 -121 85 -167 l24 -38 -73 3 -73 3 -42 85 c-38 76 -45
85 -70 85 -28 0 -28 -1 -37 -87 l-8 -88 -64 0 c-45 0 -64 4 -64 13 0 6 14 111
30 232 16 121 30 232 30 248 l0 27 140 0 c97 0 151 -4 174 -14z m1063 -12 c15
-11 37 -38 47 -59 17 -34 18 -45 8 -93 -23 -107 -108 -172 -228 -172 -71 0
-70 2 -80 -99 l-7 -71 -63 0 c-62 0 -64 1 -59 23 5 24 65 472 65 488 0 7 52 9
144 7 127 -3 148 -5 173 -24z m479 -5 c-3 -17 -6 -38 -6 -45 0 -11 -24 -14
-115 -14 -90 0 -115 -3 -115 -14 0 -7 -3 -34 -6 -60 l-7 -46 99 0 99 0 -3 -45
-4 -45 -104 0 -104 0 0 -27 c0 -16 -3 -45 -6 -65 l-7 -38 120 0 120 0 -10 -45
-10 -45 -179 0 -180 0 6 28 c3 15 17 115 31 222 14 107 28 212 31 233 l6 37
175 0 176 0 -7 -31z m1833 13 c51 -25 74 -63 74 -116 -2 -87 -40 -150 -106
-175 l-27 -11 41 -82 c23 -46 48 -91 57 -100 14 -17 11 -18 -60 -18 l-75 0
-42 90 c-39 82 -46 90 -71 90 l-28 0 -8 -90 -7 -90 -63 0 c-45 0 -64 4 -64 13
0 6 16 122 35 257 19 135 35 246 35 248 0 1 62 2 138 2 111 0 144 -3 171 -18z
m297 -9 c-4 -16 -12 -75 -20 -133 -8 -58 -22 -162 -32 -232 l-17 -128 -64 0
c-61 0 -63 1 -58 23 2 12 18 117 35 232 43 296 31 265 102 265 l60 0 -6 -27z
m374 21 c0 -17 67 -404 86 -491 4 -22 1 -23 -60 -23 l-64 0 -7 55 -6 55 -88 0
-88 0 -18 -55 -19 -55 -64 0 c-35 0 -62 3 -60 8 2 4 60 121 128 260 l124 252
68 0 c37 0 68 -3 68 -6z"/>
<path d="M2291 8131 c-30 -30 -47 -122 -32 -172 11 -35 16 -40 38 -37 38 4 62
44 69 115 10 94 -28 141 -75 94z"/>
<path d="M8478 7696 c-212 -76 -334 -329 -394 -816 -37 -307 9 -519 131 -595
45 -28 56 -30 139 -30 83 0 98 3 158 33 141 69 245 225 307 462 62 238 89 559
57 701 -39 176 -134 260 -295 259 -36 -1 -82 -7 -103 -14z"/>
<path d="M6380 7704 c0 -5 -20 -153 -45 -329 -25 -176 -45 -321 -45 -322 0 -2
39 -3 88 -3 223 1 377 82 450 238 23 49 27 70 27 152 0 109 -19 160 -78 204
-64 49 -103 59 -254 64 -79 2 -143 1 -143 -4z"/>
<path d="M2767 7641 c-27 -84 -170 -444 -241 -608 l-35 -83 194 0 195 0 0 24
c0 27 -80 749 -83 752 -1 1 -15 -37 -30 -85z"/>
<path d="M1610 6639 c-179 -28 -281 -184 -235 -361 21 -82 60 -147 196 -323
l111 -144 60 42 c156 109 238 257 238 427 0 233 -164 392 -370 359z"/>
<path d="M1200 5486 c-252 -184 -295 -564 -89 -781 153 -162 420 -190 717 -78
50 20 92 39 92 43 0 8 -78 109 -255 330 -55 69 -169 214 -254 323 -84 108
-156 197 -160 197 -3 0 -26 -15 -51 -34z"/>
<path d="M7475 5672 c-79 -37 -121 -113 -113 -208 6 -76 34 -104 102 -104 89
0 145 52 166 155 27 128 -50 205 -155 157z"/>
<path d="M5398 5583 l-46 -98 60 -3 c33 -2 62 -1 64 1 4 4 -25 189 -30 194 -2
2 -23 -41 -48 -94z"/>
<path d="M6532 5585 c-23 -47 -42 -90 -42 -95 0 -6 27 -10 61 -10 l61 0 -7 43
c-8 57 -26 147 -28 147 -2 0 -22 -38 -45 -85z"/>
<path d="M8518 5576 l-48 -96 65 0 65 0 -7 48 c-3 26 -11 69 -17 95 l-11 48
-47 -95z"/>
<path d="M8770 4914 c0 -14 -185 -455 -226 -538 -8 -16 -14 -31 -14 -33 0 -1
72 -3 160 -3 121 0 160 3 160 13 2 42 -66 577 -72 577 -4 0 -8 -7 -8 -16z"/>
<path d="M5465 3245 c-84 -30 -131 -116 -123 -228 3 -45 10 -63 30 -83 58 -59
171 -30 217 55 32 58 40 164 17 209 -26 51 -79 68 -141 47z"/>
<path d="M7848 3210 c-9 -19 -30 -65 -47 -102 -17 -37 -31 -70 -31 -73 0 -3
29 -5 64 -5 l65 0 -6 38 c-3 20 -11 69 -18 107 l-12 70 -15 -35z"/>
<path d="M3967 3209 c-8 -19 -29 -64 -46 -101 -17 -37 -31 -70 -31 -73 0 -3
29 -5 65 -5 l66 0 -6 33 c-3 17 -10 63 -16 102 -5 38 -12 71 -14 73 -2 2 -10
-11 -18 -29z"/>
<path d="M4907 3229 c-3 -19 -9 -61 -13 -93 -6 -53 -5 -59 10 -53 10 4 35 7
57 7 57 0 89 34 89 94 0 53 -11 61 -87 72 l-50 6 -6 -33z"/>
<path d="M5956 3225 c-3 -16 -8 -59 -12 -94 l-7 -63 44 7 c69 11 97 30 108 73
14 48 14 54 -3 77 -9 13 -31 21 -69 25 l-56 6 -5 -31z"/>
<path d="M8277 3229 c-3 -19 -9 -59 -12 -90 l-7 -56 60 8 c33 3 65 10 72 14
20 12 41 74 34 100 -8 32 -27 42 -91 51 l-50 6 -6 -33z"/>
<path d="M9042 3190 c-5 -14 -26 -58 -45 -97 l-35 -73 62 0 63 0 -9 68 c-5 37
-13 81 -17 97 l-8 30 -11 -25z"/>
</g>
</svg>
