<svg xmlns="http://www.w3.org/2000/svg" width="595.5" height="842.25"><defs><clipPath id="a"><path d="M0 0h595.5v842.25H0Z" clip-rule="evenodd"/></clipPath><clipPath id="b"><path d="M0 0h595.5v842.25H0Z" clip-rule="evenodd"/></clipPath><clipPath id="c"><path d="M0 0h595.5v842.25H0Z" clip-rule="evenodd"/></clipPath><clipPath id="d"><path d="M0 767.604h595.5v74.646H0Z" clip-rule="evenodd"/></clipPath><clipPath id="e"><path d="M0 0h595.5v842.25H0Z"/></clipPath><clipPath id="f"><path d="M0 0h595.5v842.25H0Z"/></clipPath><clipPath id="g"><path d="M81.46 773.85h138.192v27.36H81.46Z"/></clipPath><clipPath id="h"><path d="M95.14 773.85H205.9a13.68 13.68 0 1 1 0 27.36H95.14a13.68 13.68 0 0 1 0-27.36Z"/></clipPath><clipPath id="i"><path d="M241.745 774.787h31.512v31.512h-31.512Z" clip-rule="evenodd"/></clipPath><clipPath id="j"><path d="M109.355 59.55h376.642v219.833H109.355Z" clip-rule="evenodd"/></clipPath><clipPath id="k"><path d="M0 0h595.5v842.25H0Z" clip-rule="evenodd"/></clipPath><clipPath id="l"><path d="M0 0h595.5v842.25H0Z"/></clipPath><clipPath id="m"><path d="M0 0h595.5v842.25H0Z"/></clipPath><clipPath id="n"><path d="M595.5 0H0v842.25h595.5V0ZM350.06 533.39h-2.724v1.752h2.723v-1.751Z" clip-rule="evenodd"/></clipPath><clipPath id="o"><path d="M0 0h595.5v842.25H0Z" clip-rule="evenodd"/></clipPath></defs><g clip-path="url(#a)"><path fill="#fff" d="M0 0h595.5v842.25H0Z"/></g><g clip-path="url(#b)"><path fill="#faf3ea" d="M0 0h595.724v842.567H0Z"/></g><g fill="#fafaff" clip-path="url(#c)" font-family="Poppins" font-size="18.23"><text xml:space="preserve" transform="matrix(.59435 0 0 .59435 269.154 815.891)"><tspan x="0 5.830002 16.305787 27.036637 37.075166 48.53476 59.976137 71.545047 81.58357 91.531009 103.02704 114.50485" y="18">123-456-7890</tspan></text><text xml:space="preserve" transform="matrix(.59435 0 0 .59435 409.747 816.55)"><tspan x="0 14.939377 29.878754 44.81813 48.644075 55.439668 66.73529 79.05116 83.532978 88.014789 98.27194 110.587818 117.38341 128.67903 140.9949 147.62653 157.13672 161.61853 168.25016 179.54578 183.37172 194.43051 206.09052" y="18">www.reallygreatsite.com</tspan></text></g><g clip-path="url(#d)"><path fill="#512b07" d="M0 767.604h642.594v98.742H0Z"/></g><g clip-path="url(#e)"><g clip-path="url(#f)"><g clip-path="url(#g)"><g clip-path="url(#h)"><path fill="#7ea028" d="M81.46 773.85h138.085v27.36H81.46Z"/></g></g></g></g><g clip-path="url(#i)"><path fill="#7ea028" d="M265.902 790.373a8.55 8.55 0 0 1-1.444 4.762 8.55 8.55 0 0 1-3.847 3.156 8.55 8.55 0 0 1-4.952.488 8.55 8.55 0 0 1-4.39-2.346 8.55 8.55 0 0 1-2.345-4.388 8.55 8.55 0 0 1 .488-4.953 8.55 8.55 0 0 1 3.157-3.846 8.55 8.55 0 0 1 4.762-1.445 8.55 8.55 0 0 1 4.762 1.445 8.55 8.55 0 0 1 3.157 3.846 8.55 8.55 0 0 1 .652 3.28Z"/><path fill="#7ea028" d="M272.21 790.373a14.843 14.843 0 0 1-1.133 5.693 14.843 14.843 0 0 1-3.225 4.827 14.843 14.843 0 0 1-4.827 3.226 14.843 14.843 0 0 1-5.694 1.132 14.843 14.843 0 0 1-5.694-1.132 14.843 14.843 0 0 1-4.827-3.226 14.843 14.843 0 0 1-3.226-4.827 14.843 14.843 0 0 1-1.132-5.693 14.843 14.843 0 0 1 1.132-5.694 14.843 14.843 0 0 1 3.226-4.827 14.843 14.843 0 0 1 4.827-3.226 14.843 14.843 0 0 1 5.694-1.132 14.843 14.843 0 0 1 5.694 1.132 14.843 14.843 0 0 1 4.827 3.226 14.843 14.843 0 0 1 3.225 4.827 14.843 14.843 0 0 1 1.132 5.694Z"/><path fill="#fff" d="M257.33 805.958a15.528 15.528 0 0 1-11.021-4.565 15.528 15.528 0 0 1-4.564-11.02 15.528 15.528 0 0 1 4.565-11.021 15.528 15.528 0 0 1 11.02-4.565 15.528 15.528 0 0 1 11.021 4.565 15.528 15.528 0 0 1 4.566 11.02 15.528 15.528 0 0 1-4.565 11.021 15.528 15.528 0 0 1-11.021 4.565Zm0-29.758c-7.814 0-14.172 6.358-14.172 14.173 0 7.814 6.358 14.172 14.173 14.172 7.814 0 14.173-6.358 14.173-14.172 0-7.815-6.359-14.173-14.173-14.173Z"/><path fill="#fff" d="M257.33 800.008a9.6 9.6 0 0 1-6.814-2.822 9.6 9.6 0 0 1-2.822-6.815 9.6 9.6 0 0 1 2.822-6.814 9.6 9.6 0 0 1 6.815-2.822 9.6 9.6 0 0 1 6.814 2.822 9.6 9.6 0 0 1 2.822 6.814 9.6 9.6 0 0 1-2.822 6.814 9.6 9.6 0 0 1-6.814 2.823Zm0-17.858c-4.533 0-8.221 3.689-8.221 8.223 0 4.534 3.688 8.222 8.222 8.222 4.534 0 8.222-3.688 8.222-8.222 0-4.534-3.688-8.223-8.222-8.223ZM258.715 778.487l-.604-.017a.412.412 0 0 0-.03-.138.32.32 0 0 0-.185-.18.445.445 0 0 0-.152-.028.427.427 0 0 0-.255.066.45.45 0 0 0-.162.204.89.89 0 0 0-.062.325.918.918 0 0 0 .045.338.423.423 0 0 0 .15.208.446.446 0 0 0 .246.075.471.471 0 0 0 .149-.017.358.358 0 0 0 .115-.057.332.332 0 0 0 .081-.094.402.402 0 0 0 .045-.126l.603.02a.808.808 0 0 1-.087.282.913.913 0 0 1-.509.447 1.109 1.109 0 0 1-.424.062 1.128 1.128 0 0 1-.538-.145.937.937 0 0 1-.368-.391 1.251 1.251 0 0 1-.121-.62c.007-.244.06-.448.159-.613a.95.95 0 0 1 .39-.369c.163-.082.343-.12.54-.114.138.004.265.026.38.067.115.041.215.1.302.175a.83.83 0 0 1 .204.272c.052.11.08.232.088.368ZM261.169 779.318a1.236 1.236 0 0 1-.286.566.95.95 0 0 1-.465.277 1.138 1.138 0 0 1-.555-.003 1.122 1.122 0 0 1-.494-.255.95.95 0 0 1-.28-.462 1.23 1.23 0 0 1 .008-.632c.058-.236.153-.426.285-.566a.942.942 0 0 1 .463-.277c.177-.045.363-.044.556.003.193.047.357.133.493.254.136.123.23.276.282.461.053.186.05.398-.007.634Zm-.596-.146a.934.934 0 0 0 .028-.336.442.442 0 0 0-.099-.236.422.422 0 0 0-.225-.128.424.424 0 0 0-.259.009.435.435 0 0 0-.198.163.94.94 0 0 0-.13.311.934.934 0 0 0-.029.336.438.438 0 0 0 .1.236.422.422 0 0 0 .225.128.424.424 0 0 0 .259-.009.435.435 0 0 0 .198-.163c.056-.08.099-.184.13-.311ZM263.727 779.302l-.952 1.977-.447-.216-.213-1.382-.011-.006-.5 1.038-.537-.26.952-1.976.456.22.205 1.373.014.007.5-1.034.533.259ZM263.91 779.97l.287-.383 1.528 1.14-.287.384-.53-.395-1.025 1.374-.47-.35 1.025-1.374-.529-.395ZM264.703 782.8l-.44-.469 2.095-.973.557.593-1.103 2.03-.44-.468.831-1.438-.011-.013-1.489.737Zm.549-.68.827.88-.324.305-.828-.88.325-.306ZM268.048 785.021l-.316-.515a.394.394 0 0 0 .098-.1.336.336 0 0 0 .051-.12.348.348 0 0 0-.001-.133.466.466 0 0 0-.06-.144.43.43 0 0 0-.194-.178.444.444 0 0 0-.26-.024.893.893 0 0 0-.306.127.928.928 0 0 0-.259.223.43.43 0 0 0-.091.24.438.438 0 0 0 .071.246c.029.047.061.086.096.116.034.03.072.052.111.065a.342.342 0 0 0 .253-.013l.312.516a.834.834 0 0 1-.282.082.925.925 0 0 1-.654-.182 1.124 1.124 0 0 1-.285-.322 1.123 1.123 0 0 1-.174-.53.928.928 0 0 1 .128-.52c.094-.168.245-.314.452-.441a1.25 1.25 0 0 1 .6-.203.946.946 0 0 1 .525.126c.157.092.287.22.39.389.073.117.122.236.152.355a.951.951 0 0 1 .02.348.837.837 0 0 1-.117.32c-.064.1-.15.192-.26.272ZM268.531 785.253l.451-.165.656 1.79-.45.164-.228-.619-1.609.59-.202-.55 1.609-.591-.227-.62ZM270.053 789.38l.062.591-1.397.146a.781.781 0 0 1-.443-.073.788.788 0 0 1-.315-.3 1.167 1.167 0 0 1-.15-.482 1.164 1.164 0 0 1 .048-.504.772.772 0 0 1 .245-.36.785.785 0 0 1 .418-.163l1.397-.146.062.592-1.346.141a.375.375 0 0 0-.176.063.327.327 0 0 0-.111.138.355.355 0 0 0-.026.185.365.365 0 0 0 .063.176c.036.05.08.087.137.11a.355.355 0 0 0 .186.026l1.346-.14ZM269.334 791.694a.237.237 0 0 0 .173-.066c.044-.044.07-.114.078-.21a.418.418 0 0 0-.01-.153.179.179 0 0 0-.052-.09.144.144 0 0 0-.083-.036.126.126 0 0 0-.072.009.157.157 0 0 0-.06.048.413.413 0 0 0-.053.09c-.017.036-.033.08-.048.13l-.053.176c-.036.12-.078.22-.127.303a.77.77 0 0 1-.165.199.54.54 0 0 1-.2.105.692.692 0 0 1-.235.021.621.621 0 0 1-.356-.137.656.656 0 0 1-.202-.323 1.29 1.29 0 0 1-.039-.482c.016-.19.057-.353.125-.49a.692.692 0 0 1 .288-.308.802.802 0 0 1 .46-.08l-.048.563a.335.335 0 0 0-.173.036.283.283 0 0 0-.114.118.48.48 0 0 0-.051.192.504.504 0 0 0 .01.16.217.217 0 0 0 .057.104.153.153 0 0 0 .092.042.138.138 0 0 0 .09-.025.264.264 0 0 0 .077-.098 1.11 1.11 0 0 0 .073-.188l.064-.214a.995.995 0 0 1 .25-.44.51.51 0 0 1 .416-.133.61.61 0 0 1 .356.142c.098.084.17.194.218.333.047.138.064.293.05.467a1.108 1.108 0 0 1-.127.45.687.687 0 0 1-.274.278.681.681 0 0 1-.383.075l.048-.568ZM258.013 802.317l.598-.085a.405.405 0 0 0 .054.13.323.323 0 0 0 .213.146c.047.01.099.01.154.003.1-.014.18-.051.24-.108a.441.441 0 0 0 .126-.23.911.911 0 0 0 .006-.33.91.91 0 0 0-.102-.326.428.428 0 0 0-.184-.18.445.445 0 0 0-.255-.031.477.477 0 0 0-.144.042.31.31 0 0 0-.168.182.375.375 0 0 0-.023.131l-.598.082a.808.808 0 0 1 .037-.291.929.929 0 0 1 .426-.527c.113-.065.25-.11.409-.133.2-.029.384-.012.555.05.17.064.313.171.428.324.115.152.191.349.226.59.034.24.017.451-.052.63a.945.945 0 0 1-.324.432 1.122 1.122 0 0 1-.511.204 1.26 1.26 0 0 1-.386-.001.933.933 0 0 1-.327-.12.825.825 0 0 1-.248-.234c-.07-.1-.119-.216-.15-.35ZM255.456 801.915c.017-.244.079-.446.185-.606a.951.951 0 0 1 .41-.351 1.12 1.12 0 0 1 .548-.09c.2.013.376.07.531.168a.95.95 0 0 1 .356.407c.082.173.115.382.097.624-.017.244-.079.446-.184.606a.958.958 0 0 1-.409.353c-.167.074-.35.105-.549.09a1.115 1.115 0 0 1-.528-.167.95.95 0 0 1-.357-.406 1.23 1.23 0 0 1-.1-.628Zm.61.043a.941.941 0 0 0 .029.336.422.422 0 0 0 .138.215c.065.051.145.08.244.088a.433.433 0 0 0 .254-.052.427.427 0 0 0 .167-.194.95.95 0 0 0 .076-.328.941.941 0 0 0-.028-.336.422.422 0 0 0-.14-.215.427.427 0 0 0-.243-.088.433.433 0 0 0-.254.052.427.427 0 0 0-.167.194.95.95 0 0 0-.076.328ZM252.937 802.366l.603-2.11.478.137.444 1.326.013.004.317-1.108.572.163-.603 2.11-.486-.14-.433-1.317-.016-.005-.316 1.103-.573-.163ZM252.643 801.738l-.218.427-1.699-.864.218-.428.588.3.777-1.527.522.266-.776 1.527.588.299ZM251.381 799.085l.513.388-1.899 1.315-.65-.49.743-2.188.513.388-.575 1.558.014.01 1.341-.981Zm-.425.763-.964-.728.268-.356.965.729-.269.355ZM247.708 797.463l.399.453a.384.384 0 0 0-.08.115.325.325 0 0 0-.005.258.464.464 0 0 0 .083.131c.066.076.14.123.222.142.082.02.169.013.26-.02a.892.892 0 0 0 .28-.176c.1-.09.173-.176.217-.263a.42.42 0 0 0 .05-.253.43.43 0 0 0-.113-.23.469.469 0 0 0-.113-.097.359.359 0 0 0-.12-.045.347.347 0 0 0-.247.057l-.396-.457a.819.819 0 0 1 .264-.13.91.91 0 0 1 .675.069c.117.058.229.148.334.269.133.15.22.315.26.491a.928.928 0 0 1-.037.536c-.064.181-.188.351-.37.51-.183.162-.37.262-.557.303a.952.952 0 0 1-.538-.035 1.11 1.11 0 0 1-.45-.317 1.215 1.215 0 0 1-.21-.324.932.932 0 0 1-.078-.34.814.814 0 0 1 .06-.335.994.994 0 0 1 .21-.312ZM247.193 797.317l-.416.239-.952-1.653.417-.239.329.573 1.485-.855.292.51-1.485.854.33.57ZM244.99 793.508l-.162-.573 1.353-.382a.772.772 0 0 1 .45-.002.782.782 0 0 1 .361.244c.103.119.178.269.23.45.052.182.065.35.04.505a.771.771 0 0 1-.18.395.78.78 0 0 1-.386.231l-1.352.382-.163-.574 1.303-.367a.363.363 0 0 0 .163-.093.323.323 0 0 0 .086-.154.357.357 0 0 0-.006-.187.368.368 0 0 0-.093-.163.32.32 0 0 0-.153-.086.357.357 0 0 0-.187.006l-1.303.368ZM245.308 791.106a.235.235 0 0 0-.16.094c-.036.05-.05.124-.04.22.004.06.016.11.034.148.018.037.04.064.067.08a.143.143 0 0 0 .088.021.13.13 0 0 0 .069-.02.16.16 0 0 0 .052-.06.393.393 0 0 0 .037-.096 1.03 1.03 0 0 0 .025-.137l.022-.182c.015-.123.04-.23.075-.32a.75.75 0 0 1 .128-.224.548.548 0 0 1 .18-.137.695.695 0 0 1 .227-.061.617.617 0 0 1 .374.076c.106.061.19.157.253.284.064.128.104.284.12.468.018.19.004.358-.04.505a.687.687 0 0 1-.23.351.801.801 0 0 1-.44.158l-.05-.564a.335.335 0 0 0 .165-.066.285.285 0 0 0 .093-.135c.018-.057.025-.122.018-.198a.515.515 0 0 0-.037-.157.233.233 0 0 0-.073-.092.152.152 0 0 0-.098-.026.14.14 0 0 0-.085.041.27.27 0 0 0-.06.11c-.016.049-.03.114-.04.197l-.027.222a1.007 1.007 0 0 1-.17.476.512.512 0 0 1-.388.201.6.6 0 0 1-.374-.079.736.736 0 0 1-.271-.29 1.129 1.129 0 0 1-.128-.453c-.016-.176 0-.332.048-.466a.69.69 0 0 1 .223-.32c.1-.08.223-.127.366-.14l.047.57Z"/><path fill="#fff" d="M259.826 791.38c-.755.155-1.44 1.036-1.483 1.093-.218.285-.35.556-.43.75a36.527 36.527 0 0 1-3.27-4.33c.205-.028.494-.082.82-.212.147-.058 1.127-.449 1.452-1.136.505-1.069-.49-3.03-1.949-3.309-1.056-.203-2.152.514-2.682 1.346-1.5 2.354 1.179 6.164 1.614 6.784.376.537 3.445 4.796 6.664 4.101.914-.198 2.046-.84 2.272-1.837.356-1.571-1.657-3.53-3.008-3.25ZM251.372 781.239a1.22 1.22 0 0 1-.36.87 1.22 1.22 0 0 1-.87.36 1.22 1.22 0 0 1-.871-.36 1.22 1.22 0 0 1-.36-.87 1.22 1.22 0 0 1 .36-.87 1.22 1.22 0 0 1 .87-.361 1.22 1.22 0 0 1 .87.36 1.22 1.22 0 0 1 .361.87ZM267.893 797.85a1.22 1.22 0 0 1-.36.87 1.22 1.22 0 0 1-.87.361 1.22 1.22 0 0 1-.871-.36 1.22 1.22 0 0 1-.36-.87 1.22 1.22 0 0 1 .36-.871 1.22 1.22 0 0 1 .87-.36 1.22 1.22 0 0 1 .87.36 1.22 1.22 0 0 1 .361.87Z"/></g><g clip-path="url(#j)"><text xml:space="preserve" font-family="Poppins" font-size="13.33" font-weight="bold" transform="matrix(.75028 0 0 .75028 112.356 64.552)"><tspan x="156.42188 160.35366 170.37638 177.66683 188.14269 196.8326 209.06777 218.89055 229.04654 239.5224 246.7329 254.92966 257.7552 267.57798 277.2675 281.19929 291.3553 295.28706 305.7629 315.78565 325.60844 329.54023" y="52">INFORMAÇÕES ADICIONAIS</tspan></text><path d="M121.36 114.446c0 .248-.048.488-.143.717-.095.23-.23.433-.407.609a1.858 1.858 0 0 1-.608.407c-.23.095-.47.142-.718.142a1.858 1.858 0 0 1-1.326-.55 1.858 1.858 0 0 1-.407-.608 1.858 1.858 0 0 1-.143-.717c0-.25.048-.488.143-.718.095-.23.23-.433.407-.609.175-.176.378-.311.608-.406.23-.095.47-.143.718-.143.249 0 .488.048.718.143a1.858 1.858 0 0 1 1.015 1.015c.095.23.143.469.143.718Z"/><text xml:space="preserve" font-family="Poppins" font-size="13.33" transform="matrix(.75028 0 0 .75028 112.356 64.552)"><tspan x="22.65625 33.13211 40.95569 46.325044 54.041994 62.145463 72.62132 79.685199 86.52249 93.73299 104.20885 112.032428 117.40178 126.82472 133.66202 139.03137 146.24187 156.71773 166.14067 176.61653 184.44011 189.80947 200.28533 208.1089 213.47826 221.30184 228.13913 235.34963 245.82549 253.92896 260.76625 268.5898 273.95918 283.3288 292.31193 302.78779 308.15715 315.87409 326.34996 335.7729 342.6102 354.08567 359.45503 367.2786 377.75447 384.4718 392.5753 399.41258 407.51603 412.8854 421.86857 427.62629 434.83677 441.67408 449.77757 458.76066 469.04997 479.5258 486.3631" y="71">OS PROJETOS DE TODOS OS SETORES NÃO PODEM SOFRER ALTERAÇÕES</tspan></text><text xml:space="preserve" font-family="Poppins" font-size="13.33" transform="matrix(.75028 0 0 .75028 112.356 64.552)"><tspan x="22.65625 29.493546 37.317125 44.52762 52.63109 61.627534 68.83803 77.83447 85.93794 94.92107 98.19977 106.023349 108.66231 112.37715 121.800098 128.63739 137.64717 144.48447 155.95995 159.67479 167.49837 174.33567 184.70491 193.70136 196.98006 205.08353 208.79837 219.27423 222.98908 233.27835 241.38182 244.66053 251.87102 258.7083 266.81178 270.09046 280.5663 284.28117 291.11845 298.94206 306.15254 314.256 323.25245 330.46293 339.45939 347.56285 356.546 362.3037 366.01856 372.85588 381.1326 388.84953 399.3254 407.14897 414.35948 424.83534 428.55018 437.9731 441.2518 450.23497 459.60459 466.8151 473.65238 477.36723 486.35035" y="90">ESTRUTURAIS, DEVEM SEGUIR O CRITÉRIO ESTRUTURAL EXPOSTO DIANTE ÀS</tspan></text><text xml:space="preserve" font-family="Poppins" font-size="13.33" transform="matrix(.75028 0 0 .75028 112.356 64.552)"><tspan x="22.65625 29.373597 39.849458 47.05995 57.535814 65.35939" y="109">FOTOS;</tspan></text><path d="M121.36 157.212c0 .249-.048.488-.143.718-.095.23-.23.432-.407.608a1.858 1.858 0 0 1-.608.407c-.23.095-.47.142-.718.142a1.858 1.858 0 0 1-1.326-.55 1.858 1.858 0 0 1-.407-.607 1.858 1.858 0 0 1-.143-.718c0-.249.048-.488.143-.718.095-.23.23-.433.407-.609.175-.175.378-.311.608-.406.23-.095.47-.143.718-.143.249 0 .488.048.718.143a1.858 1.858 0 0 1 1.015 1.015c.095.23.143.469.143.718Z"/><text xml:space="preserve" font-family="Poppins" font-size="13.33" transform="matrix(.75028 0 0 .75028 112.356 64.552)"><tspan x="22.65625 30.479828 39.46295 49.938814 60.94606 68.66301 75.500308 83.603778 95.079257 98.357959 105.56845 108.84715 118.270099 127.25322 135.0768 146.08405 155.50699 162.34429 172.63356 183.10942 191.21289 200.19602 210.48529 220.96115 227.79845 235.62203 246.62928 256.05223 262.88954 270.7131 280.13606 286.97334 297.9806 308.4831 317.47956 324.31684 335.3241 344.69374 353.67686 364.1527 375.15998 384.1564 389.91413 397.12464 405.2281 414.21125 421.92817 430.91133 438.73487 446.55848 453.39576 464.87123 475.87855 486.35438" y="128">SÃO PERMITIDAS DECORAÇÕES DESDE QUE NÃO ULTRAPASSEM OS</tspan></text><text xml:space="preserve" font-family="Poppins" font-size="13.33" transform="matrix(.75028 0 0 .75028 112.356 64.552)"><tspan x="494.1875 497.7461" y="128">  </tspan></text><text xml:space="preserve" font-family="Poppins" font-size="13.33" transform="matrix(.75028 0 0 .75028 112.356 64.552)"><tspan x="22.65625 29.493546 37.317125 44.52762 53.510744 62.880388 72.30333 79.140628 86.9642 90.5228 99.53258 102.81128 110.021778 113.300479 122.67012 131.89315 142.369 150.19258" y="147">ESTANDES VIZINHOS;</tspan></text><path d="M121.36 184.972c0 .249-.048.488-.143.718-.095.23-.23.433-.407.609a1.858 1.858 0 0 1-.608.406c-.23.095-.47.143-.718.143-.249 0-.488-.048-.718-.143a1.858 1.858 0 0 1-.608-.406 1.858 1.858 0 0 1-.407-.609 1.858 1.858 0 0 1-.143-.718c0-.248.048-.488.143-.718.095-.23.23-.432.407-.608a1.858 1.858 0 0 1 1.326-.55c.249 0 .488.048.718.143.23.095.432.231.608.407a1.858 1.858 0 0 1 .55 1.326Z"/><text xml:space="preserve" font-family="Poppins" font-size="13.33" transform="matrix(.75028 0 0 .75028 112.356 64.552)"><tspan x="22.65625 33.13211 37.57663 46.573076 54.396654 64.87251 69.31703 78.739978 87.7231 92.16762 97.925357 108.401218 118.77046 129.24633 140.7218 149.70493 157.8084 168.09767 177.0808 181.52532 189.34889 196.18619 204.28966 213.27278 217.7173 224.5546 233.92424 243.34719 250.18448 258.28797 265.12525 275.41453 284.39765 293.8206 304.29646 308.74098 318.1639 325.00123 329.44575 338.42884 348.71815 359.19398 367.29747 376.7204 387.19627 391.64079 401.93006 412.4059 423.8814 428.32594 437.30903 441.75367 445.03239 456.50788 465.49098 475.86024 482.6975" y="165">O USO DA LOGOMARCA SERÁ ENDEREÇADO DE ACORDO COM A IMAGEM</tspan></text><text xml:space="preserve" font-family="Poppins" font-size="13.33" transform="matrix(.75028 0 0 .75028 112.356 64.552)"><tspan x="22.65625 29.493546 33.05214 42.475084 49.312379 57.135957 67.42523 75.5287 78.8074 89.09668 99.57254 106.409839 114.23341 117.79201 127.21495 137.69081 141.2494 148.96636 157.06983 167.54569 174.60956 181.44686 188.65735 199.13321" y="183">E DESCRIÇÕES DO PROJETO;</tspan></text><path d="M121.36 211.982c0 .25-.048.488-.143.718-.095.23-.23.433-.407.609a1.858 1.858 0 0 1-.608.406c-.23.096-.47.143-.718.143-.249 0-.488-.047-.718-.143a1.858 1.858 0 0 1-.608-.406 1.858 1.858 0 0 1-.407-.609 1.858 1.858 0 0 1-.143-.718c0-.248.048-.488.143-.717.095-.23.23-.433.407-.609a1.858 1.858 0 0 1 1.326-.55c.249 0 .488.048.718.143.23.096.432.231.608.407.176.176.312.379.407.609.095.23.143.469.143.717Z"/><text xml:space="preserve" font-family="Poppins" font-size="13.33" transform="matrix(.75028 0 0 .75028 112.356 64.552)"><tspan x="22.65625 32.079195 38.91649 50.391969 59.37509 62.653795 70.47737 83.71452 91.5381 98.3754 106.47887 115.48865 118.76735 129.05663 139.53249 147.35607 160.59322 168.69669 175.53398 184.5171 190.27484 193.55355 200.76404 209.74716 219.1701 229.64597 237.46955 250.7067 259.68983 265.44758 272.28486 283.7603 296.9975 306.4204 316.8963 324.71986 337.95704 347.37995 354.21726 362.04084 372.3301 380.4336 383.71229 390.9228 401.39863 409.22224 422.45936 430.28297 437.12025 445.2237 454.20686 464.68269 477.91993 487.3429" y="201">DEMAIS SERVIÇOS REALIZADOS ALÉM DOS DESCRITOS SERÃO DE</tspan></text><text xml:space="preserve" font-family="Poppins" font-size="13.33" transform="matrix(.75028 0 0 .75028 112.356 64.552)"><tspan x="22.65625 30.75972 37.597017 45.420595 53.137544 63.613405 72.98305 80.806629 89.78975 97.959857 101.238559 106.99629 110.274997 119.69794 128.68106 138.104 144.9413 148.4999 157.92284 168.3987 171.95729 182.24657 192.72243 204.1979 211.91486 220.01833 229.00145 238.4244 248.90026 257.00373" y="219">RESPONSABILIDADE DO COMPRADOR.</tspan></text><path d="M121.36 238.993c0 .248-.048.488-.143.717-.095.23-.23.433-.407.609a1.858 1.858 0 0 1-.608.407c-.23.095-.47.142-.718.142a1.858 1.858 0 0 1-1.326-.55 1.858 1.858 0 0 1-.407-.608 1.858 1.858 0 0 1-.143-.717c0-.25.048-.488.143-.718.095-.23.23-.433.407-.609.175-.176.378-.311.608-.406.23-.096.47-.143.718-.143.249 0 .488.047.718.143a1.858 1.858 0 0 1 1.015 1.015c.095.23.143.469.143.718Z"/><text xml:space="preserve" font-family="Poppins" font-size="13.33" transform="matrix(.75028 0 0 .75028 112.356 64.552)"><tspan x="22.65625 31.639374 39.46295 45.18474 50.942476 61.418336 71.78758 82.26344 90.08702 95.80881 104.80525 112.01575 115.29445 121.052188 124.33089 131.54138 140.5245 149.94745 158.93058 166.75415 172.47594 181.84558 190.8287 198.65229 204.37407 207.65277 219.12825 228.11138 238.48062 245.31792 254.68756 262.51115 268.2329 278.5222 288.99806 300.47355 308.1905 316.29396 323.13127 329.96858 339.3382 348.76115 355.59846 361.32023 370.30335 376.02516 381.78288 392.25874 402.628 413.10383 418.82563 428.24858 438.72444 444.44624 451.2835 460.2933 467.1306 476.50025 483.71076" y="237">AS LOGOS UTILIZADAS NAS IMAGENS COMPREENDE A LOGO DO EVENTO</tspan></text><text xml:space="preserve" font-family="Poppins" font-size="13.33" transform="matrix(.75028 0 0 .75028 112.356 64.552)"><tspan x="22.65625 32.945528 43.421388 54.896867 65.37273 70.29851 79.72145 86.55875 98.034229 108.510089 117.87973 125.70331 132.9138 141.01728 150.0004 157.21089 160.4896 169.49938 179.97524 184.90102 193.88414 201.60109 208.43839 217.80803 226.79116 234.61473 239.54051 248.96346 255.80075 260.72654 271.0158 281.49168 292.96717 303.443 308.36878 317.79176 324.62904 333.6388 340.4761 348.5796 357.56269 362.48847 370.31208 377.14936 385.2528 390.1786 397.89558 408.3714 416.195 419.4737 429.76298 433.0417 443.51753 452.88719 461.8703 471.29325 480.27638 485.20216" y="255">COMO DEMONSTRATIVO APENAS DE COMO DEVERÁ SER POSICIONADA A</tspan></text><text xml:space="preserve" font-family="Poppins" font-size="13.33" transform="matrix(.75028 0 0 .75028 112.356 64.552)"><tspan x="22.65625 28.413987 38.889848 49.259096 59.734956 63.29355 72.71649 83.19235 86.750949 97.04022 107.51608 118.99156 126.70851 134.81198 143.7951 153.21805 163.69391 171.79738" y="273">LOGO DO COMPRADOR;</tspan></text></g><g clip-path="url(#k)"><text xml:space="preserve" font-family="Poppins" font-size="21.33" font-weight="bold" transform="matrix(.64512 0 0 .64512 94.122 777.846)"><tspan x="41.40625 56.975847 68.514408 84.55322 100.05884 115.777729" y="21">VENDAS</tspan></text><text xml:space="preserve" font-family="Poppins" font-size="21.33" font-weight="bold" transform="matrix(.64512 0 0 .64512 94.122 777.846)"><tspan x="128.906" y="21"> </tspan></text><text xml:space="preserve" fill="#fafaff" font-family="Poppins" font-size="18.23" font-weight="bold" transform="matrix(.59435 0 0 .59435 281.988 773.425)"><tspan x="0 13.88269 28.202637 41.903139 52.670427 66.09764 76.86493" y="18">CONTATO</tspan></text><text xml:space="preserve" fill="#fafaff" font-family="Poppins" font-size="18.23" transform="matrix(.59435 0 0 .59435 278.475 792.184)"><tspan x="0 8.271317 19.74913 30.224915 38.49623 43.36064 54.838457 66.33449 77.77586 89.34477 100.78615 110.82468 122.28427 133.7803 144.51116" y="18">(92) 98565-4835</tspan></text><text xml:space="preserve" font-family="Poppins" font-size="13.33" font-weight="bold" transform="matrix(.75028 0 0 .75028 24.27 442.232)"><tspan x="280 287.29048 297.76634 306.45625 318.6914 328.5142 336.71095 339.5365 349.226 356.43653 359.2621 367.5788 377.40159 387.55757 397.38035 409.6155 416.826 426.8487 434.7256 445.20146" y="13">FORMAS DE PAGAMENTO:</tspan></text><text xml:space="preserve" font-family="Poppins" font-size="13.33" font-weight="bold" transform="matrix(.75028 0 0 .75028 24.27 442.232)"><tspan x="187.82813 197.51764 201.44942 211.2722 223.50737 233.33016 243.35288 251.22977 258.44026 261.2658 268.47633 271.30189 281.77775 291.174 299.86393 310.33979 314.12495" y="49">DIAMANTE E OURO: </tspan></text><text xml:space="preserve" font-family="Poppins" font-size="13.33" transform="matrix(.75028 0 0 .75028 24.27 442.232)"><tspan x="316.95314 324.67008 327.9488 336.22554 338.8645 342.4231 350.5932 361.06907 366.82679 373.66407 380.87458 391.35044 394.90904 401.74635 405.30494 415.5942 424.57734 432.6808 439.8913 448.87443 459.35029 462.90888 472.33183 479.16914 482.72773 493.017 501.12049 507.95777 517.38076 520.6594 527.86996 538.3458" y="49">PIX, BOLETO E CARTÃO DE CRÉDITO.</tspan></text><text xml:space="preserve" font-family="Poppins" font-size="13.33" font-weight="bold" transform="matrix(.75028 0 0 .75028 24.27 442.232)"><tspan x="183.10938 191.4261 200.11602 209.9388 217.81569 227.63848 231.46364 234.28919 243.07239 251.7623 262.23817 272.26087 280.2044 287.41493 291.24009 294.0656 301.9425 312.41838 320.29527 327.50575 339.7409 342.56648 349.77699 352.60255 362.75856 372.58134 380.77809 388.65498 397.34489 407.82075 417.84346 428.3193 440.55445 444.48625 454.30903 458.09419" y="67">PRATA, BRONZE, TOTEM E GASTRONOMIA: </tspan></text><text xml:space="preserve" font-family="Poppins" font-size="13.33" transform="matrix(.75028 0 0 .75028 24.27 442.232)"><tspan x="460.92189 468.63883 471.91755 480.19429 483.75288 490.59016 494.14875 502.31886 512.7947 518.5524 525.3897 532.6002 543.07608" y="67">PIX E BOLETO.</tspan></text><text xml:space="preserve" font-family="Poppins" font-size="13.33" font-weight="bold" transform="matrix(.75028 0 0 .75028 24.27 442.232)"><tspan x="60.25 67.36719 75.683917 85.5067 94.19661 104.019397 106.84494 115.16167 124.98445 135.14044 144.96323 157.1984 164.40889 174.43161 182.3085 192.78437 200.98113 203.80667 213.82939 224.30525 227.1308 237.28679 247.10958 255.79949 263.6764 273.49919 283.97505 286.8006 296.4901 303.70063 306.52619 316.6822 325.37208 332.58259 342.2721 346.20387 354.08076 364.55665 367.38218 375.57893 382.78944 391.47935 401.30213 404.1277 414.28367 424.75953 433.54273 442.23265 452.05543 461.74494 471.56773 474.39326 483.78956 496.02473 505.8475 508.67304 516.5499 526.37277 535.9023 545.7251 548.55068 558.3734 568.0629 571.9947 582.1507 586.08248 596.55838 606.58108 616.4039 622.76138 625.58688 635.2764 642.4869 645.31246 653.3759 664.9714" y="103">*PARA PAGAMENTOS NO CARTÃO DE CRÉDITO SERÁ COBRADA UMA TAXA ADICIONAL DE 3%.</tspan></text><text xml:space="preserve" font-family="Poppins" font-size="13.33" transform="matrix(.75028 0 0 .75028 24.27 442.232)"><tspan x="131.89063 143.3661 150.2034 159.62635 162.90505 172.32799 181.31111 184.8697 193.85283 205.32831 213.04526 222.02838 230.13185 239.11498 248.53792 257.52107 261.07966 268.7966 275.6339 281.39167 290.3748" y="121">MEDIDA AMPARADA PELA </tspan></text><path d="M244.805 533.766h54.091v.75h-54.09Z"/><text xml:space="preserve" font-family="Poppins" font-size="13.33" transform="matrix(.75028 0 0 .75028 24.27 442.232)"><tspan x="293.9375 299.69526 306.53254 309.81123 313.3698 320.08717 326.92445 336.34739 343.1847 351.28816 360.27128" y="121">LEI FEDERAL</tspan></text><path d="M298.896 533.766h5.346v.75h-5.346Z"/><text xml:space="preserve" font-family="Poppins" font-size="13.33" transform="matrix(.75028 0 0 .75028 24.27 442.232)"><tspan x="366.03126 369.58985" y="121">  </tspan></text></g><g clip-path="url(#l)"><g clip-path="url(#m)"><g clip-path="url(#n)"><path d="M304.242 533.766h165.355v.75H304.242Z"/></g></g></g><g clip-path="url(#o)"><text xml:space="preserve" font-family="Poppins" font-size="13.33" transform="matrix(.75028 0 0 .75028 24.27 442.232)"><tspan x="373.15626 382.52589 388.3369 391.8955 396.1605 404.01075 406.80964 415.193 423.56303 431.93305 434.57203 438.1306 447.55357 454.39088 457.94947 465.6131 474.07643 477.635 487.05796 493.89527 497.45387 504.51774 513.51419 522.8838 532.1068 542.58267 546.14126 555.5642 562.4015 565.9601 573.6237 581.9938 586.2588" y="121">Nº 13.455, DE 26 DE JUNHO DE 2017</tspan></text><text xml:space="preserve" font-family="Poppins" font-size="13.33" transform="matrix(.75028 0 0 .75028 24.27 442.232)"><tspan x="593.547" y="121"> </tspan></text><text xml:space="preserve" font-family="Poppins" font-size="13.33" font-weight="bold" transform="matrix(.75028 0 0 .75028 24.27 442.232)"><tspan x="299.1875 308.877 318.6998 328.3893 338.86518 347.06196 349.8875 358.67073 368.4935 378.51625 388.67225 398.49504 407.18495 411.1167 421.59257" y="211">DADOS BANCÁRIOS</tspan></text><text xml:space="preserve" font-family="Poppins" font-size="13.33" transform="matrix(.75028 0 0 .75028 24.27 442.232)"><tspan x="316.90626 325.88938 336.2586 343.0959 352.4655 362.7548 366.0335 375.01664 378.57524 386.9586 395.34196 403.71199" y="229">AGENCIA 4455</tspan></text><text xml:space="preserve" font-family="Poppins" font-size="13.33" transform="matrix(.75028 0 0 .75028 24.27 442.232)"><tspan x="265.32814 275.6174 286.09327 295.4629 302.6734 311.65653 315.21513 325.5044 335.98027 344.08375 352.1872 359.02449 368.3941 375.6046 382.4419 386.0005 390.26548 398.11573 406.48576 414.85578 422.706 431.07603 439.53938 447.92274 455.26649" y="247">CONTA CORRENTE 13003064-9</tspan></text><text xml:space="preserve" font-family="Poppins" font-size="13.33" transform="matrix(.75028 0 0 .75028 24.27 442.232)"><tspan x="301.01564 309.18574 318.16886 327.5385 337.8278 348.30366 351.86225 359.68583 368.66896 378.03858 385.24909 394.2322 403.60188 413.0248 419.86213" y="265">BANCO SANTANDER</tspan></text><text xml:space="preserve" font-family="Poppins" font-size="13.33" transform="matrix(.75028 0 0 .75028 24.27 442.232)"><tspan x="227.04688 236.2699 246.63915 250.19774 258.0213 264.85859 272.96205 281.9718 285.2505 295.53977 302.37709 305.93568 313.65263 321.7561 332.23197 341.6549 350.65138 360.94065 371.4165 378.25379 386.07737 389.63597 399.0589 405.89619 409.45478 416.29206 425.30183 432.1391 441.50874 448.71925 459.1951 467.01869 470.57728 476.33503 483.5455 492.96849" y="283">HG SERVICE PRODUÇÕES DE EVENTOS LTDA</tspan></text><text xml:space="preserve" font-family="Poppins" font-size="13.33" transform="matrix(.75028 0 0 .75028 24.27 442.232)"><tspan x="284.125 294.41429 303.78395 311.5009 318.56477 322.12336 326.38835 334.75837 337.55726 344.83439 353.29774 361.6811 364.47999 372.3302 380.71357 389.17689 395.52107 403.89109 412.2611 420.63114 424.89613 432.23988 436.50486" y="301">CNPJ 10.764.346/0001-10</tspan></text><text xml:space="preserve" font-family="Poppins" font-size="13.33" font-weight="bold" transform="matrix(.75028 0 0 .75028 24.27 442.232)"><tspan x="255.75 264.0667 267.99848 277.52806 281.31324" y="319">PIX: </tspan></text><text xml:space="preserve" font-family="Poppins" font-size="13.33" transform="matrix(.75028 0 0 .75028 24.27 442.232)"><tspan x="284.14064 292.6706 301.68037 309.9438 317.42085 325.68428 334.21424 339.06568 347.59565 354.55293 358.93788 362.21656 370.74653 379.7563 388.28627 401.7876 410.79737 424.52528 433.53504 436.81373 440.0924 442.8913 450.98146 459.5114" y="319">hgeventosfinan@gmail.com</tspan></text><text xml:space="preserve" font-family="Poppins" font-size="13.33" font-weight="bold" transform="matrix(.75028 0 0 .75028 49.448 318.935)"><tspan x="266.26564 270.1974 279.8869 287.0974 297.12013 304.997 308.92878 318.6183 328.44108 338.13059 345.34107 348.16664 357.89613 361.82789 370.02467 379.42097 389.24375" y="14">IDENTIDADE VISUAL</tspan></text><path d="M58.452 340.318c0 .249-.048.488-.143.718-.095.23-.23.433-.407.609a1.858 1.858 0 0 1-.608.406c-.23.095-.47.143-.718.143-.249 0-.488-.048-.718-.143a1.858 1.858 0 0 1-.608-.406 1.858 1.858 0 0 1-.407-.609 1.858 1.858 0 0 1-.143-.718c0-.249.048-.488.143-.718.095-.23.23-.432.407-.608a1.858 1.858 0 0 1 1.326-.55c.249 0 .488.048.718.143.23.095.432.231.608.407a1.858 1.858 0 0 1 .55 1.326Z"/><text xml:space="preserve" font-family="Poppins" font-size="13.33" transform="matrix(.75028 0 0 .75028 49.448 318.935)"><tspan x="22.65625 32.945528 41.92865 51.351594 60.334718 63.89331 74.18259 84.65845 96.13393 103.850879 111.954349 120.93747 130.36042 140.83628 148.93975 152.49834 159.33563 162.89423 170.9977 177.83499 185.65857 193.37552 203.85138 213.22103 221.0446 230.02773 239.0375 245.8748 251.63254 255.19113 262.90809 273.38395 281.48744 285.04603 291.8833 301.25294 310.26274 313.54145 322.52455 330.62803 334.1866 342.0102 351.00666 359.98976 363.54835 369.3061 379.78196 390.15119 400.62709 404.18568 411.02296 414.58155 417.86024 427.2832 434.12049 443.4901 450.70063 453.9793 463.40229 472.38539 481.80836 488.64564 492.20423 501.214 504.4927 512.3163 521.31277 530.29586 536.0536 539.6122 548.9818 559.4577 563.0163 570.7332 578.8367 587.8198 595.03036" y="33">CADA COMPRADOR É RESPONSÁVEL POR ENVIAR SUA LOGO E IDENTIDADE VISUAL NO PRAZO</tspan></text><text xml:space="preserve" font-family="Poppins" font-size="13.33" transform="matrix(.75028 0 0 .75028 49.448 318.935)"><tspan x="22.65625 30.75972 37.597017 45.313966 54.29709 62.120668 69.944248 78.92737 88.35031 98.82617 102.384769 110.101718 116.93901 122.69675 131.67987 135.23847 142.07576 153.55124 161.26819 169.37166 176.20896 184.03253 193.01566 196.57425 206.86353 217.33939 226.70903 233.91953 242.023 251.00612 258.2166 267.19975 276.62269 285.6058" y="52">REPASSADO PELA EMPRESA CONTRATADA.</tspan></text><path d="M58.452 368.829c0 .249-.048.488-.143.718-.095.23-.23.432-.407.608a1.858 1.858 0 0 1-.608.407c-.23.095-.47.143-.718.143-.249 0-.488-.048-.718-.143a1.858 1.858 0 0 1-.608-.407 1.858 1.858 0 0 1-.407-.608 1.858 1.858 0 0 1-.143-.718c0-.249.048-.488.143-.718.095-.23.23-.433.407-.608a1.858 1.858 0 0 1 1.326-.55c.249 0 .488.048.718.143.23.095.432.23.608.407a1.858 1.858 0 0 1 .55 1.326Z"/><text xml:space="preserve" font-family="Poppins" font-size="13.33" transform="matrix(.75028 0 0 .75028 49.448 318.935)"><tspan x="22.65625 29.866745 40.342607 49.76555 60.24141 68.06499 71.62358 82.09944 89.92302 93.48161 101.30519 108.515689 117.49881 126.868457 136.2914 144.11498 147.67357 150.95227 159.05574 168.03887 178.51473 182.07332 192.3626 202.83846 214.31394 222.03089 232.50675 240.61022 244.16881 253.15193 256.7105 259.9892 269.41215 276.24946 285.61909 292.82957 296.10829 305.53123 314.51435 323.9373 330.77458 334.33317 343.34297 346.62168 354.44523 363.44169 372.4248 378.18254 380.8215 384.3801 393.80305 400.64036 404.19895 410.9163 421.39213 429.4956 440.9711 449.9542 453.5128 464.01533 473.01176 479.84907 483.40766 492.7773 501.7604 512.2363 515.7949 524.778 531.9885 540.092 549.07516 556.79208 565.7752 571.53298 580.756 587.59329 591.15188" y="71">TODOS OS STANDS IRÃO COMPOR A IDENTIDADE VISUAL, DE FORMA QUE NÃO ATRAPALHE A</tspan></text><text xml:space="preserve" font-family="Poppins" font-size="13.33" transform="matrix(.75028 0 0 .75028 49.448 318.935)"><tspan x="22.65625 29.493546 37.317125 44.52762 52.63109 61.627534 68.83803 77.83447 85.93794 94.92107 98.47966 107.9026 118.37846 121.93706 129.654 137.75748 148.23334 155.29721 162.1345 169.345 179.82086" y="90">ESTRUTURA DO PROJETO.</tspan></text></g><path fill="none" d="M241.654 806.016h31.16v-31.161h-31.16Z"/></svg>